<svg width="21" height="20" viewBox="0 0 21 20" fill="none" xmlns="http://www.w3.org/2000/svg">
<path d="M13.4833 9.99993C13.4833 11.6499 12.1499 12.9833 10.4999 12.9833C8.84993 12.9833 7.5166 11.6499 7.5166 9.99993C7.5166 8.34993 8.84993 7.0166 10.4999 7.0166C12.1499 7.0166 13.4833 8.34993 13.4833 9.99993Z" stroke="#ADADAD" stroke-width="1.5" stroke-linecap="round" stroke-linejoin="round"/>
<path d="M10.4999 16.8923C13.4415 16.8923 16.1832 15.1589 18.0915 12.1589C18.8415 10.9839 18.8415 9.00892 18.0915 7.83392C16.1832 4.83392 13.4415 3.10059 10.4999 3.10059C7.5582 3.10059 4.81654 4.83392 2.9082 7.83392C2.1582 9.00892 2.1582 10.9839 2.9082 12.1589C4.81654 15.1589 7.5582 16.8923 10.4999 16.8923Z" stroke="#ADADAD" stroke-width="1.5" stroke-linecap="round" stroke-linejoin="round"/>
</svg>
